# xmcd
#
# Track frame offsets:
#	150
#	19139
#	39927
#	57551
#	80918
#	100161
#	123533
#	140692
#	160699
#	177778
#	196265
#	206428
#	220190
#
# Disc length: 3075 seconds
#
# Revision: 2
# Processed by: cddbd v1.5.2PL0 Copyright (c) Steve Scherf et al.
# Submitted via: audiograbber 1.83.01
#
DISCID=b60c010d
DTITLE=Murphey, Michael Martin - America's Horses
DYEAR=1994
DGENRE=Cowboy Songs
TTITLE0=Tennessee Stud
TTITLE1=Running Shadow
TTITLE2=Ponies
TTITLE3=Wildfire
TTITLE4=The Running Blood
TTITLE5=See Hw All The Horses Come Dancing
TTITLE6=Palomino Days
TTITLE7=Run For The Roses
TTITLE8=The Pony Man
TTITLE9=Quarter Horse Rider
TTITLE10=Goodbye Old Paint
TTITLE11=I Ride An Old Paint/Whoopie Ti Yi Yo, Get Along Little Dogies
TTITLE12=Happ Trails
EXTD=
EXTT0=
EXTT1=
EXTT2=
EXTT3=
EXTT4=
EXTT5=
EXTT6=
EXTT7=
EXTT8=
EXTT9=
EXTT10=
EXTT11=
EXTT12=
PLAYORDER=
